<svg xmlns="http://www.w3.org/2000/svg" viewBox="0 0 512 512"><defs><linearGradient id="b" x1="0" x2="1" y1="0" y2="1" gradientUnits="objectBoundingBox"><stop offset="0%" stop-color="#2BD46B"/><stop offset="50%" stop-color="#0F6B34"/><stop offset="100%" stop-color="#1A4A2E"/></linearGradient><linearGradient id="a" x1="0" x2="0" y1="0" y2="1" gradientUnits="objectBoundingBox"><stop offset="0%" stop-color="#22C55E"/><stop offset="60%" stop-color="#1BA84F"/><stop offset="100%" stop-color="#19A85A"/></linearGradient></defs><path fill="none" stroke="url(#a)" stroke-linecap="round" stroke-linejoin="round" stroke-width="54" d="M341 148c0 72-1 162-2 240-1 32-9 60-31 74s-60 10-98-7"/><ellipse cx="340" cy="272" fill="#2D7A4A" opacity=".55" rx="27" ry="8"/><ellipse cx="337" cy="370" fill="#2D7A4A" opacity=".5" rx="27" ry="7"/><path fill="#22C55E" d="M328 348c-35-25-50-50-35-72 13 22 23 47 35 72" opacity=".75"/><path fill="url(#b)" fill-rule="evenodd" d="M356 155c0-65-46-107-108-107-118 0-190 76-190 162s72 162 190 162c54 0 98-22 120-60v-74H260v44c-44 0-122-28-122-72s40-82 110-82c34 0 58 20 66 44Z"/></svg>